#!OML:ASF X:\für Bonn\!DataBase\2005_08_12_Daniel\c3d\Daniel.ASF
:FULLY-SPECIFIED
:DEGREES
92
root 2.14894 17.6128 18.379 -725.863 17.7313 -1.78533
lowerback 7.68933 2.57121 6.46814
upperback 0.229871 3.78925 -6.32936
thorax -3.22092 1.77371 -10.8218
lowerneck 1.11386 -6.21969 -1.90997
upperneck 6.96486 -8.67653 6.26481
head 2.42734 -4.23104 2.16897
rclavicle -6.72886e-014 2.70347e-014
rhumerus 49.2348 4.25556 -31.3847
rradius 23.9749
rwrist 1.51543
rhand 18.6716 10.8947
rfingers 7.12502
rthumb 43.2956 -13.246
lclavicle -6.72886e-014 2.70347e-014
lhumerus -28.7877 37.0001 67.2507
lradius 20.7509
lwrist -32.4707
lhand -11.0783 -6.22022
lfingers 7.12502
lthumb 14.9451 23.2206
rfemur 6.52842 19.4207 24.701
rtibia 16.8706
rfoot -25.6628 -28.099
rtoes -10.8241
lfemur -3.29544 -16.999 -17.3229
ltibia 31.7022
lfoot -22.2552 2.17071
ltoes -13.2576
93
root 2.15313 17.613 18.3813 -725.856 17.9158 -1.77447
lowerback 7.71084 2.56889 6.49865
upperback 0.21342 3.78942 -6.33939
thorax -3.24771 1.77126 -10.8539
lowerneck 1.14493 -6.21814 -2.00782
upperneck 6.97625 -8.67634 6.29881
head 2.43283 -4.23298 2.19817
rclavicle 7.83957e-014 -4.13472e-014
rhumerus 48.9485 4.18975 -31.4604
rradius 24.1066
rwrist 1.80609
rhand 18.1614 10.8835
rfingers 7.12502
rthumb 42.8186 -13.4262
lclavicle 7.83957e-014 -4.13472e-014
lhumerus -29.1241 37.8399 66.7947
lradius 20.479
lwrist -33.3607
lhand -11.0897 -6.30403
lfingers 7.12502
lthumb 14.9341 23.1376
rfemur 6.56101 19.2593 24.654
rtibia 16.8472
rfoot -25.692 -28.0995
rtoes -10.8467
lfemur -3.33706 -17.1172 -17.3535
ltibia 31.7206
lfoot -22.2426 2.09024
ltoes -13.2014
94
root 2.15787 17.6128 18.3838 -725.855 18.0777 -1.77329
lowerback 7.71896 2.57023 6.55431
upperback 0.205806 3.79624 -6.357
thorax -3.25394 1.77331 -10.9085
lowerneck 1.17341 -6.22079 -2.04538
upperneck 6.96807 -8.6785 6.29113
head 2.42666 -4.23581 2.20312
rclavicle 3.80176e-014 -7.63333e-014
rhumerus 48.682 4.01253 -31.7321
rradius 24.2075
rwrist 2.30346
rhand 17.5584 10.9147
rfingers 7.12502
rthumb 42.2542 -13.5896
lclavicle 3.80176e-014 -7.63333e-014
lhumerus -29.4659 38.6812 66.2899
lradius 20.196
lwrist -34.2427
lhand -11.1035 -6.41288
lfingers 7.12502
lthumb 14.9208 23.0297
rfemur 6.59158 19.0587 24.6012
rtibia 16.819
rfoot -25.7026 -28.0437
rtoes -10.8406
lfemur -3.37906 -17.1931 -17.3746
ltibia 31.7475
lfoot -22.2417 2.02107
ltoes -13.242
95
root 2.16231 17.6128 18.3852 -725.855 18.2403 -1.76497
lowerback 7.74324 2.57074 6.59473
upperback 0.195396 3.80132 -6.36881
thorax -3.27398 1.77379 -10.9488
lowerneck 1.16232 -6.21954 -2.08284
upperneck 7.002 -8.67802 6.28864
head 2.4418 -4.23566 2.20821
rclavicle -7.43082e-014 9.54166e-015
rhumerus 48.3979 3.89955 -31.8777
rradius 24.3441
rwrist 2.7069
rhand 16.777 11.0139
rfingers 7.12502
rthumb 41.5217 -13.7344
lclavicle -7.43082e-014 9.54166e-015
lhumerus -29.8958 39.724 65.6649
lradius 19.8777
lwrist -35.3635
lhand -11.1176 -6.56489
lfingers 7.12502
lthumb 14.9072 22.8787
rfemur 6.62019 18.8908 24.5523
rtibia 16.8024
rfoot -25.7295 -28.0179
rtoes -10.8364
lfemur -3.41339 -17.3001 -17.4049
ltibia 31.771
lfoot -22.2333 1.94994
ltoes -13.1828
96
root 2.1664 17.6125 18.3864 -725.854 18.3892 -1.76401
lowerback 7.76048 2.57336 6.64501
upperback 0.184962 3.80986 -6.38003
thorax -3.28868 1.77616 -10.9941
lowerneck 1.1757 -6.21837 -2.08089
upperneck 7.01219 -8.67415 6.24877
head 2.44013 -4.23452 2.19515
rclavicle -1.01417e-013 6.52014e-014
rhumerus 48.1264 3.76088 -32.0877
rradius 24.4781
rwrist 3.2491
rhand 15.9235 11.1597
rfingers 7.12502
rthumb 40.7202 -13.845
lclavicle -1.01417e-013 6.52014e-014
lhumerus -30.3412 40.7008 65.012
lradius 19.5658
lwrist -36.3965
lhand -11.1008 -6.70297
lfingers 7.12502
lthumb 14.9234 22.7394
rfemur 6.63761 18.7236 24.5067
rtibia 16.7908
rfoot -25.764 -27.9906
rtoes -10.9014
lfemur -3.45986 -17.3764 -17.4202
ltibia 31.7982
lfoot -22.2204 1.86184
ltoes -13.1827
97
root 2.17112 17.6113 18.3866 -725.861 18.542 -1.75397
lowerback 7.79331 2.5712 6.70417
upperback 0.178683 3.81327 -6.40199
thorax -3.30761 1.77572 -11.0574
lowerneck 1.15915 -6.21913 -2.07417
upperneck 7.04132 -8.67471 6.22037
head 2.45079 -4.23434 2.1838
rclavicle 7.1811e-015 4.13472e-014
rhumerus 47.84 3.67187 -32.1864
rradius 24.6541
rwrist 3.70849
rhand 15.0483 11.2764
rfingers 7.12502
rthumb 39.8971 -13.9807
lclavicle 7.1811e-015 4.13472e-014
lhumerus -30.828 41.6577 64.3047
lradius 19.2565
lwrist -37.4192
lhand -11.0987 -6.83019
lfingers 7.12502
lthumb 14.9254 22.6121
rfemur 6.65612 18.5055 24.438
rtibia 16.7873
rfoot -25.772 -27.9057
rtoes -10.8625
lfemur -3.48713 -17.4855 -17.4591
ltibia 31.8258
lfoot -22.2237 1.81671
ltoes -13.1323
98
root 2.17532 17.6113 18.3871 -725.854 18.6883 -1.74019
lowerback 7.8054 2.56664 6.73352
upperback 0.171225 3.81039 -6.40217
thorax -3.32109 1.77279 -11.0764
lowerneck 1.13329 -6.20816 -2.08617
upperneck 7.07946 -8.65855 6.17283
head 2.46518 -4.22641 2.1695
rclavicle -4.32357e-014 5.08889e-014
rhumerus 47.5878 3.61098 -32.2544
rradius 24.841
rwrist 4.22683
rhand 14.0669 11.4328
rfingers 7.12502
rthumb 38.9726 -14.095
lclavicle -4.32357e-014 5.08889e-014
lhumerus -31.431 42.7695 63.4883
lradius 18.9578
lwrist -38.5851
lhand -11.1044 -6.89687
lfingers 7.12502
lthumb 14.9199 22.5458
rfemur 6.66163 18.3435 24.3735
rtibia 16.7934
rfoot -25.8292 -27.8456
rtoes -10.8647
lfemur -3.53011 -17.5893 -17.4959
ltibia 31.8557
lfoot -22.2167 1.75955
ltoes -13.1297
99
root 2.17967 17.6106 18.3864 -725.866 18.8282 -1.74242
lowerback 7.84161 2.56393 6.78611
upperback 0.164137 3.81318 -6.40212
thorax -3.34488 1.77177 -11.1113
lowerneck 1.11686 -6.20849 -2.07872
upperneck 7.11353 -8.65721 6.12129
head 2.47598 -4.2257 2.15041
rclavicle 1.08201e-013 -1.27222e-014
rhumerus 47.3444 3.58213 -32.2643
rradius 25.0384
rwrist 4.72566
rhand 13.1017 11.5629
rfingers 7.12502
rthumb 38.0619 -14.2194
lclavicle 1.08201e-013 -1.27222e-014
lhumerus -32.1218 44.0553 62.4984
lradius 18.6076
lwrist -39.959
lhand -11.1251 -6.97137
lfingers 7.12502
lthumb 14.9 22.4728
rfemur 6.66352 18.1239 24.3143
rtibia 16.809
rfoot -25.8335 -27.7499
rtoes -10.9259
lfemur -3.56912 -17.6627 -17.5129
ltibia 31.8878
lfoot -22.2023 1.6767
ltoes -13.0761
100
root 2.18412 17.6095 18.3851 -725.868 18.9681 -1.73065
lowerback 7.87246 2.56018 6.83741
upperback 0.15532 3.81386 -6.41677
thorax -3.36707 1.76972 -11.1615
lowerneck 1.1024 -6.20275 -2.02483
upperneck 7.13165 -8.64593 6.0508
head 2.477 -4.21959 2.11748
rclavicle 9.75287e-015 -3.33958e-014
rhumerus 47.1092 3.59734 -32.2265
rradius 25.2497
rwrist 5.18299
rhand 12.1349 11.6644
rfingers 7.12502
rthumb 37.1483 -14.3616
lclavicle 9.75287e-015 -3.33958e-014
lhumerus -32.8452 45.2907 61.4428
lradius 18.245
lwrist -41.3062
lhand -11.1284 -6.97361
lfingers 7.12502
lthumb 14.8968 22.4708
rfemur 6.65996 17.9321 24.2466
rtibia 16.8203
rfoot -25.8339 -27.694
rtoes -10.9369
lfemur -3.61308 -17.7653 -17.5513
ltibia 31.9263
lfoot -22.1932 1.62551
ltoes -13.0593
101
root 2.18776 17.6085 18.3837 -725.871 19.1032 -1.73399
lowerback 7.89705 2.56039 6.88362
upperback 0.152606 3.81977 -6.41116
thorax -3.37974 1.77118 -11.1855
lowerneck 1.03224 -6.20543 -2.02282
upperneck 7.20645 -8.64912 5.98886
head 2.51097 -4.21987 2.09376
rclavicle 5.74363e-014 -2.22639e-014
rhumerus 46.8938 3.63589 -32.1058
rradius 25.4905
rwrist 5.59329
rhand 11.2086 11.7121
rfingers 7.12502
rthumb 36.2718 -14.5372
lclavicle 5.74363e-014 -2.22639e-014
lhumerus -33.5833 46.4245 60.4061
lradius 17.8916
lwrist -42.5826
lhand -11.1879 -6.92485
lfingers 7.12502
lthumb 14.8395 22.5238
rfemur 6.65285 17.7428 24.1947
rtibia 16.8321
rfoot -25.8513 -27.61
rtoes -10.9764
lfemur -3.6691 -17.8501 -17.5639
ltibia 31.9697
lfoot -22.1943 1.55621
ltoes -13.0576
102
root 2.19158 17.6068 18.3827 -725.892 19.23 -1.73407
lowerback 7.93034 2.55693 6.92845
upperback 0.157334 3.82102 -6.41038
thorax -3.39029 1.77075 -11.214
lowerneck 0.992721 -6.19975 -1.96171
upperneck 7.2282 -8.63719 5.90298
head 2.5164 -4.21314 2.05377
rclavicle 7.50164e-014 1.11319e-014
rhumerus 46.6687 3.76091 -31.8363
rradius 25.7928
rwrist 5.82939
rhand 10.3265 11.7019
rfingers 7.12502
rthumb 35.436 -14.7512
lclavicle 7.50164e-014 1.11319e-014
lhumerus -34.3556 47.5124 59.3204
lradius 17.5558
lwrist -43.8147
lhand -11.1993 -6.80639
lfingers 7.12502
lthumb 14.8285 22.643
rfemur 6.66803 17.5813 24.1557
rtibia 16.8483
rfoot -25.8783 -27.5539
rtoes -11.0097
lfemur -3.70029 -17.9129 -17.5841
ltibia 32.0174
lfoot -22.1928 1.47333
ltoes -13.001
103
root 2.19512 17.6051 18.3817 -725.892 19.3645 -1.72466
lowerback 7.94279 2.545 6.93595
upperback 0.156426 3.80685 -6.39034
thorax -3.40258 1.76275 -11.1958
lowerneck 0.914174 -6.18517 -1.95506
upperneck 7.30969 -8.61564 5.81443
head 2.5512 -4.20143 2.02091
rclavicle 4.44159e-014 1.59028e-014
rhumerus 46.4442 3.97378 -31.4458
rradius 26.1732
rwrist 5.9428
rhand 9.56217 11.6591
rfingers 7.12502
rthumb 34.711 -14.964
lclavicle 4.44159e-014 1.59028e-014
lhumerus -35.1208 48.3025 58.3743
lradius 17.3126
lwrist -44.73
lhand -11.2171 -6.63163
lfingers 7.12502
lthumb 14.8114 22.819
rfemur 6.66953 17.4656 24.1152
rtibia 16.8585
rfoot -25.9102 -27.5315
rtoes -11.039
lfemur -3.75513 -18.0079 -17.6086
ltibia 32.0655
lfoot -22.1881 1.41394
ltoes -12.9076
